<svg xmlns="http://www.w3.org/2000/svg" viewBox="0 0 100 100">
  <defs>
    <linearGradient id="g1" x1="0%" y1="0%" x2="100%" y2="100%">
      <stop offset="0%" stop-color="#d946ef"/>
      <stop offset="50%" stop-color="#c026d3"/>
      <stop offset="100%" stop-color="#86198f"/>
    </linearGradient>
    <linearGradient id="g2" x1="100%" y1="0%" x2="0%" y2="100%">
      <stop offset="0%" stop-color="#e879f9"/>
      <stop offset="50%" stop-color="#d946ef"/>
      <stop offset="100%" stop-color="#a21caf"/>
    </linearGradient>
  </defs>
  <!-- Left ribbon of the N / heart shape -->
  <path d="M15 75 C5 55, 10 25, 30 15 C40 10, 48 15, 50 25 L30 70 C25 78, 18 80, 15 75Z" fill="url(#g1)"/>
  <!-- Right ribbon of the N / heart shape -->
  <path d="M85 75 C95 55, 90 25, 70 15 C60 10, 52 15, 50 25 L70 70 C75 78, 82 80, 85 75Z" fill="url(#g2)"/>
  <!-- Center crossover creating the N shape -->
  <path d="M30 70 L50 25 L70 70" fill="none" stroke="url(#g1)" stroke-width="0"/>
  <path d="M25 78 C20 88, 15 90, 10 85 L50 25 L55 30 Z" fill="url(#g1)" opacity="0.9"/>
  <path d="M75 78 C80 88, 85 90, 90 85 L50 25 L45 30 Z" fill="url(#g2)" opacity="0.9"/>
  <!-- Tail accents -->
  <path d="M10 85 C5 80, 3 70, 8 65" fill="none" stroke="#86198f" stroke-width="3" stroke-linecap="round"/>
  <path d="M90 85 C95 80, 97 70, 92 65" fill="none" stroke="#a21caf" stroke-width="3" stroke-linecap="round"/>
</svg>